# Blender 4.4.3
# www.blender.org
mtllib Untitled.mtl
o Cube
v -1.199850 -0.444631 -1.167332
v -0.386806 -1.678650 0.180317
v 0.613336 0.283068 -1.594896
v 1.426380 -0.950951 -0.247247
v -1.426380 0.950951 0.247247
v -0.613336 -0.283068 1.594896
v 0.386806 1.678650 -0.180317
v 1.199850 0.444631 1.167332
vn -0.4065 0.6170 -0.6738
vn 0.9066 0.3638 -0.2138
vn -0.1133 0.6978 0.7073
vn 0.4065 -0.6170 0.6738
vn 0.1133 -0.6978 -0.7073
vn -0.9066 -0.3638 0.2138
vt 0.625000 0.500000
vt 0.875000 0.500000
vt 0.875000 0.750000
vt 0.625000 0.750000
vt 0.375000 0.750000
vt 0.625000 1.000000
vt 0.375000 1.000000
vt 0.375000 0.000000
vt 0.625000 0.000000
vt 0.625000 0.250000
vt 0.375000 0.250000
vt 0.125000 0.500000
vt 0.375000 0.500000
vt 0.125000 0.750000
s 0
usemtl Material
f 1/1/1 5/2/1 7/3/1 3/4/1
f 4/5/2 3/4/2 7/6/2 8/7/2
f 8/8/3 7/9/3 5/10/3 6/11/3
f 6/12/4 2/13/4 4/5/4 8/14/4
f 2/13/5 1/1/5 3/4/5 4/5/5
f 6/11/6 5/10/6 1/1/6 2/13/6
